<?xml version="1.0" encoding="UTF-8" standalone="no"?>
<svg
   width="16"
   height="16"
   version="1.1"
   id="svg8"
   sodipodi:docname="io.github.mibi88.MibiMdEditor-symbolic.svg"
   inkscape:version="1.2.2 (b0a8486541, 2022-12-01)"
   xmlns:inkscape="http://www.inkscape.org/namespaces/inkscape"
   xmlns:sodipodi="http://sodipodi.sourceforge.net/DTD/sodipodi-0.dtd"
   xmlns="http://www.w3.org/2000/svg"
   xmlns:svg="http://www.w3.org/2000/svg">
  <defs
     id="defs12" />
  <sodipodi:namedview
     id="namedview10"
     pagecolor="#ffffff"
     bordercolor="#000000"
     borderopacity="0.25"
     inkscape:showpageshadow="2"
     inkscape:pageopacity="0.0"
     inkscape:pagecheckerboard="0"
     inkscape:deskcolor="#d1d1d1"
     showgrid="true"
     inkscape:zoom="12.817483"
     inkscape:cx="-8.5820279"
     inkscape:cy="4.9931799"
     inkscape:window-width="1665"
     inkscape:window-height="749"
     inkscape:window-x="159"
     inkscape:window-y="156"
     inkscape:window-maximized="0"
     inkscape:current-layer="svg8">
    <inkscape:grid
       type="xygrid"
       id="grid350" />
  </sodipodi:namedview>
  <path
     style="fill:#2e3436;stroke-width:0.145;stroke-linecap:round;stroke-linejoin:round"
     d="M 1,2 C 1,0 1,0 3,0 h 6 c 2,0 2,0 2,2 V 4 L 10,5 V 4 H 2 v 10 c 0,1 0,1 1,1 h 6 c 1,0 1,0 1,-1 v -3 l 1,-1 v 4 c 0,2 0,2 -2,2 H 3 C 1,16 1,16 1,14 Z"
     id="path444"
     sodipodi:nodetypes="zzzzcccczzzzcczzzzz" />
  <path
     style="fill:#2e3436;stroke-width:0.145;stroke-linecap:round;stroke-linejoin:round"
     d="M 13,3 7,9 v 2 h 2 l 6,-6 z"
     id="path516"
     sodipodi:nodetypes="cccccc" />
  <path
     style="fill:none;stroke:#2e3436;stroke-width:1;stroke-linecap:round;stroke-linejoin:round;stroke-dasharray:none;stroke-opacity:1"
     d="M 3,6 H 9"
     id="path2177" />
  <path
     style="fill:none;stroke:#2e3436;stroke-width:1;stroke-linecap:round;stroke-linejoin:round;stroke-dasharray:none;stroke-opacity:1"
     d="M 3,8 H 7"
     id="path2179" />
  <path
     style="fill:none;stroke:#2e3436;stroke-width:1;stroke-linecap:round;stroke-linejoin:round;stroke-dasharray:none;stroke-opacity:1"
     d="M 3,10 H 6"
     id="path2181" />
  <path
     style="fill:none;stroke:#2e3436;stroke-width:1;stroke-linecap:round;stroke-linejoin:round;stroke-dasharray:none;stroke-opacity:1"
     d="M 8,12 H 9"
     id="path2183"
     sodipodi:nodetypes="cc" />
  <path
     style="fill:none;stroke:#2e3436;stroke-width:1;stroke-linecap:round;stroke-linejoin:round;stroke-dasharray:none;stroke-opacity:1"
     d="M 8,14 H 9"
     id="path2185"
     sodipodi:nodetypes="cc" />
  <path
     style="fill:none;stroke:#2e3436;stroke-width:1;stroke-linecap:round;stroke-linejoin:round;stroke-dasharray:none;stroke-opacity:1"
     d="m 3,12 h 3 v 0 2 H 3 Z"
     id="path2198" />
</svg>
