<?xml version="1.0" encoding="UTF-8" standalone="no"?>
<svg
   width="16"
   height="16"
   version="1.1"
   id="svg8"
   sodipodi:docname="io.github.mibi88.MibiMdEditor-symbolic.svg"
   inkscape:version="1.3 (0e150ed6c4, 2023-07-21)"
   xmlns:inkscape="http://www.inkscape.org/namespaces/inkscape"
   xmlns:sodipodi="http://sodipodi.sourceforge.net/DTD/sodipodi-0.dtd"
   xmlns="http://www.w3.org/2000/svg"
   xmlns:svg="http://www.w3.org/2000/svg">
  <defs
     id="defs12" />
  <sodipodi:namedview
     id="namedview10"
     pagecolor="#ffffff"
     bordercolor="#000000"
     borderopacity="0.25"
     inkscape:showpageshadow="2"
     inkscape:pageopacity="0.0"
     inkscape:pagecheckerboard="0"
     inkscape:deskcolor="#d1d1d1"
     showgrid="true"
     inkscape:zoom="20.49272"
     inkscape:cx="1.0247541"
     inkscape:cy="2.1715028"
     inkscape:window-width="1665"
     inkscape:window-height="749"
     inkscape:window-x="159"
     inkscape:window-y="156"
     inkscape:window-maximized="0"
     inkscape:current-layer="svg8">
    <inkscape:grid
       type="xygrid"
       id="grid350"
       originx="0"
       originy="0"
       spacingy="1"
       spacingx="1"
       units="px"
       visible="true"
       snapvisiblegridlinesonly="true"
       dotted="false"
       empspacing="1" />
  </sodipodi:namedview>
  <path
     style="fill:#2e3436;stroke-width:0.145;stroke-linecap:round;stroke-linejoin:round"
     d="M 0,2 C 0,0 0,0 2,0 h 8 c 2,0 2,0 2,2 V 3 L 10,5 V 4 H 2 v 9 c 0,1 0,1 1,1 h 6 c 1,0 1,0 1,-1 v -2 l 2,-2 v 5 c 0,2 0,2 -2,2 H 2 C 0,16 0,16 0,14 Z"
     id="path444"
     sodipodi:nodetypes="zzzzcccczzzccczzzzz" />
  <path
     style="fill:#2e3436;stroke-width:0.145;stroke-linecap:round;stroke-linejoin:round"
     d="M 14,2 8,8 v 2 h 2 l 6,-6 z"
     id="path516"
     sodipodi:nodetypes="cccccc" />
  <path
     style="color:#000000;fill:#2e3436;stroke-linecap:round;stroke-linejoin:round;-inkscape-stroke:none"
     d="M 4,5 A 1,1 0 0 0 3,6 1,1 0 0 0 4,7 H 8 A 1,1 0 0 0 9,6 1,1 0 0 0 8,5 Z"
     id="path2177" />
  <path
     style="color:#000000;fill:#2e3436;stroke-linecap:round;stroke-linejoin:round;-inkscape-stroke:none"
     d="M 4,8 A 1,1 0 0 0 3,9 1,1 0 0 0 4,10 H 6 A 1,1 0 0 0 7,9 1,1 0 0 0 6,8 Z"
     id="path2177-3" />
  <path
     style="color:#000000;fill:#2e3436;stroke-linecap:round;stroke-linejoin:round;-inkscape-stroke:none"
     d="m 4,11 a 1,1 0 0 0 -1,1 1,1 0 0 0 1,1 H 8 A 1,1 0 0 0 9,12 1,1 0 0 0 8,11 Z"
     id="path2177-3-6" />
</svg>
