<?xml version="1.0" encoding="UTF-8"?>
<svg height="128px" viewBox="0 0 128 128" width="128px" xmlns="http://www.w3.org/2000/svg" xmlns:xlink="http://www.w3.org/1999/xlink">
    <clipPath id="a">
        <rect height="128" width="128"/>
    </clipPath>
    <clipPath id="b">
        <rect height="128" width="128"/>
    </clipPath>
    <filter id="c" height="100%" width="100%" x="0%" y="0%">
        <feColorMatrix in="SourceGraphic" type="matrix" values="0 0 0 0 1 0 0 0 0 1 0 0 0 0 1 0 0 0 1 0"/>
    </filter>
    <mask id="d">
        <g clip-path="url(#b)" filter="url(#c)">
            <g clip-path="url(#a)">
                <path d="m 21 28 v -13 s 0 -6 8 -6 h 71 c 7 0 7 7 7 7 v 12 z m 0 0" fill="#3584e4"/>
                <path d="m 21 26 h 86 v 2 h -86 z m 0 0" fill="#1a5fb4"/>
                <path d="m 21 28 v 84 s 0 7 7 7 h 71 c 8 0 8 -7 8 -7 v -84 z m 0 0" fill="#f6f5f4"/>
                <path d="m 21 112 s 0 7 7 7 h 72 c 7 0 7 -7 7 -7 s 0 5 -7 5 s -65 0 -72 0 s -7 -5 -7 -5 z m 0 0" fill="#deddda"/>
                <path d="m 24.000828 258.00001 l 1.999836 2.000805 l -1.999836 -4.001609 l 3.999671 4.001609 l -3.999671 -6.00069 l 5.999506 6.00069 l -5.999506 -8.001495 l 7.999342 8.001495 l -7.999342 -10.000576 l 9.999177 10.000576 l -9.999177 -12.00138 l 11.999013 12.00138 l -11.999013 -14.000462 l 13.998848 14.000462 l -13.998848 -16.001266 l 15.998683 16.001266 l -13.998847 -16.001266 l 15.998683 16.001266 l -13.998848 -16.001266 l 15.998683 16.001266 l -13.998848 -16.001266 l 16.000467 16.001266 l -14.000631 -16.001266 l 16.000467 16.001266 l -14.000632 -16.001266 l 16.000467 16.001266 l -14.000631 -16.001266 l 16.000466 16.001266 l -14.000631 -16.001266 l 16.000467 16.001266 l -14.000632 -16.001266 l 16.000467 16.001266 l -14.000631 -16.001266 l 14.000631 14.000461 l -12.000796 -14.000461 l 12.000796 11.999657 l -9.999177 -11.999657 l 9.999177 10.000576 l -7.999341 -10.000576 l 7.999341 7.999771 l -5.999506 -7.999771 l 5.999506 6.00069 l -3.999671 -6.00069 l 3.999671 3.999886 l -1.999835 -3.999886 l 1.999835 2.000804" fill="#deddda" stroke="#9a9996" stroke-linecap="round" stroke-linejoin="round" stroke-width="1.25" transform="matrix(2.189633 0 0 2.266666 -26.490515 -491.799957)"/>
                <path d="m 28.999525 255.999206 l -0.999026 -0.999541 l 1.999835 0.999541 l -1.999835 -1.999081 l 2.998861 1.999081 l -2.998861 -2.998622 l 3.999671 2.998622 l -3.999671 -3.999886 l 3.999671 3.000345 l -3.999671 -3.999885 l 3.999671 3.000345 l -3.999671 -3.999886 l 3.999671 3.000345 l -3.000645 -3.000345 l 3.000645 1.999081 l -1.999836 -1.999081 l 1.999836 0.999541 l -1.00081 -0.999541" fill="#f6f5f4" stroke="#f6f5f4" stroke-linecap="round" stroke-linejoin="round" stroke-width="1.25" transform="matrix(2.189633 0 0 2.266666 -26.490515 -491.799957)"/>
                <path d="m 37.00065 255.999206 l -1.000809 -0.999541 l 1.999835 0.999541 l -1.999835 -1.999081 l 3.000645 1.999081 l -3.000645 -2.998622 l 3.99967 2.998622 l -3.99967 -3.999886 l 3.99967 3.000345 l -3.99967 -3.999885 l 3.99967 3.000345 l -3.99967 -3.999886 l 3.99967 3.000345 l -2.998861 -3.000345 l 2.998861 1.999081 l -1.999835 -1.999081 l 1.999835 0.999541 l -0.999025 -0.999541" fill="#f6f5f4" stroke="#f6f5f4" stroke-linecap="round" stroke-linejoin="round" stroke-width="1.25" transform="matrix(2.189633 0 0 2.266666 -26.490515 -491.799957)"/>
                <path d="m 46.999827 255.999206 l -0.999026 -0.999541 l 1.999836 0.999541 l -1.999836 -1.999081 l 2.998861 1.999081 l -2.998861 -2.998622 l 3.999671 2.998622 l -3.999671 -3.999886 l 3.999671 3.000345 l -3.999671 -3.999885 l 3.999671 3.000345 l -3.999671 -3.999886 l 3.999671 3.000345 l -3.000645 -3.000345 l 3.000645 1.999081 l -1.999835 -1.999081 l 1.999835 0.999541 l -1.00081 -0.999541" fill="#f6f5f4" stroke="#f6f5f4" stroke-linecap="round" stroke-linejoin="round" stroke-width="1.25" transform="matrix(2.189633 0 0 2.266666 -26.490515 -491.799957)"/>
                <path d="m 32.00017 250.99978 l 3.000645 3.000345 l -3.000645 -2.000805 l 1.999835 2.000805 l -1.999835 -0.999541 l 0.999026 0.999541" fill="#f6f5f4" stroke="#f6f5f4" stroke-linecap="round" stroke-linejoin="round" stroke-width="1.25" transform="matrix(2.189633 0 0 2.266666 -26.490515 -491.799957)"/>
                <path d="m 35.999841 250.000239 l -3.999671 3.999886 l 3.999671 -3.000345 l -3.000645 3.000345 l 3.000645 -2.000805 l -1.999836 2.000805 l 1.999836 -0.999541 l -0.999026 0.999541" fill="#f6f5f4" stroke="#f6f5f4" stroke-linecap="round" stroke-linejoin="round" stroke-width="1.25" transform="matrix(2.189633 0 0 2.266666 -26.490515 -491.799957)"/>
                <path d="m 46.000801 254.999665 l -2.001619 -1.999081 l 3.000645 1.999081 l -3.000645 -3.000345 l 3.000645 2.000805 l -3.000645 -3.000345" fill="#f6f5f4" stroke="#f6f5f4" stroke-linecap="round" stroke-linejoin="round" stroke-width="1.25" transform="matrix(2.189633 0 0 2.266666 -26.490515 -491.799957)"/>
                <path d="m 52.000307 250.99978 l -5.00048 4.999426 l 5.00048 -3.999886 l -3.99967 3.999886 l 3.99967 -2.998622 l -1.999835 2.998622" fill="#f6f5f4" stroke="#f6f5f4" stroke-linecap="round" stroke-linejoin="round" stroke-width="1.25" transform="matrix(2.189633 0 0 2.266666 -26.490515 -491.799957)"/>
                <path d="m 67.222656 54.515625 v 16.828125 h 17.480469 z m 0 0" fill="#deddda"/>
                <path d="m 67.222656 62.929688 l 8.742188 8.414062 h -8.742188 z m 0 0" fill="#241f31"/>
                <path d="m 73.777344 60.828125 l 41.519531 -44.171875 l -6.554687 -6.3125 l -41.519532 44.171875 z m 0 0" fill="#ff7800"/>
                <path d="m 79.242188 66.085938 l 41.515624 -44.171876 l -6.554687 -6.3125 l -41.519531 44.175782 z m 0 0" fill="#e66100"/>
                <path d="m 84.703125 71.34375 l 41.519531 -44.171875 l -5.464844 -5.257813 l -41.515624 44.171876 z m 0 0" fill="#c64600"/>
            </g>
        </g>
    </mask>
    <mask id="e">
        <g filter="url(#c)">
            <rect fill-opacity="0.8" height="128" width="128"/>
        </g>
    </mask>
    <linearGradient id="f" gradientTransform="matrix(0 0.37 -0.98462 0 295.38501 -30.360001)" gradientUnits="userSpaceOnUse" x1="300" x2="428" y1="235" y2="235">
        <stop offset="0" stop-color="#f9f06b"/>
        <stop offset="1" stop-color="#f5c211"/>
    </linearGradient>
    <clipPath id="g">
        <rect height="128" width="128"/>
    </clipPath>
    <clipPath id="h">
        <rect height="128" width="128"/>
    </clipPath>
    <path d="m 21 28 v -13 s 0 -6 8 -6 h 71 c 7 0 7 7 7 7 v 12 z m 0 0" fill="#3584e4"/>
    <path d="m 21 26 h 86 v 2 h -86 z m 0 0" fill="#1a5fb4"/>
    <path d="m 21 28 v 84 s 0 7 7 7 h 71 c 8 0 8 -7 8 -7 v -84 z m 0 0" fill="#f6f5f4"/>
    <path d="m 21 112 s 0 7 7 7 h 72 c 7 0 7 -7 7 -7 s 0 5 -7 5 s -65 0 -72 0 s -7 -5 -7 -5 z m 0 0" fill="#deddda"/>
    <g stroke-linecap="round" stroke-linejoin="round" stroke-width="1.25" transform="matrix(2.189633 0 0 2.266666 -26.490515 -491.799957)">
        <path d="m 24.000828 258.00001 l 1.999836 2.000805 l -1.999836 -4.001609 l 3.999671 4.001609 l -3.999671 -6.00069 l 5.999506 6.00069 l -5.999506 -8.001495 l 7.999342 8.001495 l -7.999342 -10.000576 l 9.999177 10.000576 l -9.999177 -12.00138 l 11.999013 12.00138 l -11.999013 -14.000462 l 13.998848 14.000462 l -13.998848 -16.001266 l 15.998683 16.001266 l -13.998847 -16.001266 l 15.998683 16.001266 l -13.998848 -16.001266 l 15.998683 16.001266 l -13.998848 -16.001266 l 16.000467 16.001266 l -14.000631 -16.001266 l 16.000467 16.001266 l -14.000632 -16.001266 l 16.000467 16.001266 l -14.000631 -16.001266 l 16.000466 16.001266 l -14.000631 -16.001266 l 16.000467 16.001266 l -14.000632 -16.001266 l 16.000467 16.001266 l -14.000631 -16.001266 l 14.000631 14.000461 l -12.000796 -14.000461 l 12.000796 11.999657 l -9.999177 -11.999657 l 9.999177 10.000576 l -7.999341 -10.000576 l 7.999341 7.999771 l -5.999506 -7.999771 l 5.999506 6.00069 l -3.999671 -6.00069 l 3.999671 3.999886 l -1.999835 -3.999886 l 1.999835 2.000804" fill="#deddda" stroke="#9a9996"/>
        <path d="m 28.999525 255.999206 l -0.999026 -0.999541 l 1.999835 0.999541 l -1.999835 -1.999081 l 2.998861 1.999081 l -2.998861 -2.998622 l 3.999671 2.998622 l -3.999671 -3.999886 l 3.999671 3.000345 l -3.999671 -3.999885 l 3.999671 3.000345 l -3.999671 -3.999886 l 3.999671 3.000345 l -3.000645 -3.000345 l 3.000645 1.999081 l -1.999836 -1.999081 l 1.999836 0.999541 l -1.00081 -0.999541" fill="#f6f5f4" stroke="#f6f5f4"/>
        <path d="m 37.00065 255.999206 l -1.000809 -0.999541 l 1.999835 0.999541 l -1.999835 -1.999081 l 3.000645 1.999081 l -3.000645 -2.998622 l 3.99967 2.998622 l -3.99967 -3.999886 l 3.99967 3.000345 l -3.99967 -3.999885 l 3.99967 3.000345 l -3.99967 -3.999886 l 3.99967 3.000345 l -2.998861 -3.000345 l 2.998861 1.999081 l -1.999835 -1.999081 l 1.999835 0.999541 l -0.999025 -0.999541" fill="#f6f5f4" stroke="#f6f5f4"/>
        <path d="m 46.999827 255.999206 l -0.999026 -0.999541 l 1.999836 0.999541 l -1.999836 -1.999081 l 2.998861 1.999081 l -2.998861 -2.998622 l 3.999671 2.998622 l -3.999671 -3.999886 l 3.999671 3.000345 l -3.999671 -3.999885 l 3.999671 3.000345 l -3.999671 -3.999886 l 3.999671 3.000345 l -3.000645 -3.000345 l 3.000645 1.999081 l -1.999835 -1.999081 l 1.999835 0.999541 l -1.00081 -0.999541" fill="#f6f5f4" stroke="#f6f5f4"/>
        <path d="m 32.00017 250.99978 l 3.000645 3.000345 l -3.000645 -2.000805 l 1.999835 2.000805 l -1.999835 -0.999541 l 0.999026 0.999541" fill="#f6f5f4" stroke="#f6f5f4"/>
        <path d="m 35.999841 250.000239 l -3.999671 3.999886 l 3.999671 -3.000345 l -3.000645 3.000345 l 3.000645 -2.000805 l -1.999836 2.000805 l 1.999836 -0.999541 l -0.999026 0.999541" fill="#f6f5f4" stroke="#f6f5f4"/>
        <path d="m 46.000801 254.999665 l -2.001619 -1.999081 l 3.000645 1.999081 l -3.000645 -3.000345 l 3.000645 2.000805 l -3.000645 -3.000345" fill="#f6f5f4" stroke="#f6f5f4"/>
        <path d="m 52.000307 250.99978 l -5.00048 4.999426 l 5.00048 -3.999886 l -3.99967 3.999886 l 3.99967 -2.998622 l -1.999835 2.998622" fill="#f6f5f4" stroke="#f6f5f4"/>
    </g>
    <path d="m 67.222656 54.515625 v 16.828125 h 17.480469 z m 0 0" fill="#deddda"/>
    <path d="m 67.222656 62.929688 l 8.742188 8.414062 h -8.742188 z m 0 0" fill="#241f31"/>
    <path d="m 73.777344 60.828125 l 41.519531 -44.171875 l -6.554687 -6.3125 l -41.519532 44.171875 z m 0 0" fill="#ff7800"/>
    <path d="m 79.242188 66.085938 l 41.515624 -44.171876 l -6.554687 -6.3125 l -41.519531 44.175782 z m 0 0" fill="#e66100"/>
    <path d="m 84.703125 71.34375 l 41.519531 -44.171875 l -5.464844 -5.257813 l -41.515624 44.171876 z m 0 0" fill="#c64600"/>
    <g clip-path="url(#h)" mask="url(#d)">
        <g clip-path="url(#g)" mask="url(#e)">
            <path d="m 128 80.640625 v 47.359375 h -128 v -47.359375 z m 0 0" fill="url(#f)"/>
            <path d="m 13.308594 80.640625 l 47.355468 47.359375 h 21.214844 l -47.359375 -47.359375 z m 42.421875 0 l 47.363281 47.359375 h 21.214844 l -47.363282 -47.359375 z m 42.429687 0 l 29.839844 29.839844 v -21.210938 l -8.628906 -8.628906 z m -98.160156 7.90625 v 21.214844 l 18.238281 18.238281 h 21.214844 z m 0 0"/>
        </g>
    </g>
</svg>
